<?xml version="1.0" encoding="UTF-8" standalone="no"?>
<!-- Created with Inkscape (http://www.inkscape.org/) -->

<svg
   xmlns:dc="http://purl.org/dc/elements/1.1/"
   xmlns:cc="http://creativecommons.org/ns#"
   xmlns:rdf="http://www.w3.org/1999/02/22-rdf-syntax-ns#"
   xmlns:svg="http://www.w3.org/2000/svg"
   xmlns="http://www.w3.org/2000/svg"
   xmlns:sodipodi="http://sodipodi.sourceforge.net/DTD/sodipodi-0.dtd"
   xmlns:inkscape="http://www.inkscape.org/namespaces/inkscape"
   width="256"
   height="256"
   viewBox="0 0 255.99999 256"
   version="1.1"
   id="svg845"
   inkscape:version="0.92.1 r15371"
   sodipodi:docname="icon.svg"
   inkscape:export-filename="E:\dev\home\csharp\MODEST_VSTNET_SMFIO\smfio\smfio\.src\icon.svg.png"
   inkscape:export-xdpi="96"
   inkscape:export-ydpi="96">
  <title
     id="title1390">TFWIO DEFAULT INKSCAPE TEMPLATE</title>
  <defs
     id="defs839" />
  <sodipodi:namedview
     id="base"
     pagecolor="#ffffff"
     bordercolor="#666666"
     borderopacity="1.0"
     inkscape:pageopacity="0.0"
     inkscape:pageshadow="2"
     inkscape:zoom="0.70710678"
     inkscape:cx="155.46098"
     inkscape:cy="219.46983"
     inkscape:document-units="px"
     inkscape:current-layer="svg845"
     inkscape:document-rotation="0"
     showgrid="false"
     units="px"
     showguides="true"
     inkscape:window-width="1082"
     inkscape:window-height="686"
     inkscape:window-x="97"
     inkscape:window-y="178"
     inkscape:window-maximized="0"
     inkscape:snap-bbox="true"
     inkscape:snap-bbox-midpoints="true"
     inkscape:bbox-paths="true"
     inkscape:bbox-nodes="true"
     inkscape:snap-bbox-edge-midpoints="true"
     inkscape:snap-object-midpoints="true"
     inkscape:snap-center="true"
     fit-margin-top="0"
     fit-margin-left="0"
     fit-margin-right="0"
     fit-margin-bottom="0"
     inkscape:guide-bbox="true">
    <inkscape:grid
       type="xygrid"
       id="grid5961" />
    <sodipodi:guide
       position="128,45.999999"
       orientation="1,0"
       id="guide6020"
       inkscape:locked="false" />
  </sodipodi:namedview>
  <metadata
     id="metadata842">
    <rdf:RDF>
      <cc:Work
         rdf:about="">
        <dc:format>image/svg+xml</dc:format>
        <dc:type
           rdf:resource="http://purl.org/dc/dcmitype/StillImage" />
        <dc:title>TFWIO DEFAULT INKSCAPE TEMPLATE</dc:title>
      </cc:Work>
    </rdf:RDF>
  </metadata>
  <g
     inkscape:label="Layer 1"
     inkscape:groupmode="layer"
     id="layer1"
     transform="translate(-392.54209,-287.45801)">
    <path
       inkscape:connector-curvature="0"
       style="color:#000000;overflow:visible;opacity:1;vector-effect:none;fill:#404040;fill-opacity:1;fill-rule:evenodd;stroke:#000000;stroke-width:8;stroke-linecap:round;stroke-linejoin:miter;stroke-miterlimit:4;stroke-dasharray:none;stroke-dashoffset:0;stroke-opacity:1;paint-order:stroke fill markers"
       d="m 520.54209,297.45801 a 118,118 0 0 0 -118,117.99999 118,118 0 0 0 118,118 118,118 0 0 0 117.99999,-118 118,118 0 0 0 -117.99999,-117.99999 z"
       id="circle4710-8" />
    <path
       id="circle4710"
       style="color:#000000;overflow:visible;opacity:1;vector-effect:none;fill:#ffffff;fill-opacity:1;fill-rule:evenodd;stroke:#000000;stroke-width:8;stroke-linecap:round;stroke-linejoin:miter;stroke-miterlimit:4;stroke-dasharray:none;stroke-dashoffset:0;stroke-opacity:1;paint-order:stroke fill markers"
       d="m 581.38898,396.06076 a 19.397259,19.397259 0 0 0 -19.39727,19.39725 19.397259,19.397259 0 0 0 19.39727,19.39725 19.397259,19.397259 0 0 0 19.39725,-19.39725 19.397259,19.397259 0 0 0 -19.39725,-19.39725 z m -121.69382,0 a 19.397259,19.397259 0 0 0 -19.39726,19.39725 19.397259,19.397259 0 0 0 19.39726,19.39725 19.397259,19.397259 0 0 0 19.39726,-19.39725 19.397259,19.397259 0 0 0 -19.39726,-19.39725 z M 563.5671,353.0357 a 19.397259,19.397259 0 0 0 -19.39725,19.39726 19.397259,19.397259 0 0 0 19.39725,19.39726 19.397259,19.397259 0 0 0 19.39727,-19.39726 19.397259,19.397259 0 0 0 -19.39727,-19.39726 z m -86.05006,0 a 19.397259,19.397259 0 0 0 -19.39726,19.39726 19.397259,19.397259 0 0 0 19.39726,19.39726 19.397259,19.397259 0 0 0 19.39726,-19.39726 19.397259,19.397259 0 0 0 -19.39726,-19.39726 z m 43.02505,-17.82186 a 19.397259,19.397259 0 0 0 -19.39726,19.39726 19.397259,19.397259 0 0 0 19.39726,19.39725 19.397259,19.397259 0 0 0 19.39725,-19.39725 19.397259,19.397259 0 0 0 -19.39725,-19.39726 z m 0,-9.18088 a 89.423944,89.423944 0 0 1 89.425,89.42505 89.423944,89.423944 0 0 1 -89.425,89.42504 89.423944,89.423944 0 0 1 -89.42506,-89.42504 89.423944,89.423944 0 0 1 89.42506,-89.42505 z m 0,-28.57495 a 118,118 0 0 0 -118,118 118,118 0 0 0 118,118 118,118 0 0 0 117.99999,-118 118,118 0 0 0 -117.99999,-118 z"
       inkscape:connector-curvature="0" />
  </g>
  <g
     id="g6139"
     transform="translate(0,-108.89444)"
     style="display:none"
     sodipodi:insensitive="true">
    <path
       d="m -214.91708,48.846785 0.96471,6.669662 5.0262,-4.489149 -3.54816,5.729367 6.73586,-0.208113 -6.40082,2.108237 5.29374,4.170301 -6.25846,-2.499361 1.37462,6.597386 -3.18769,-5.93748 -3.1877,5.93748 1.37462,-6.597386 -6.25846,2.499361 5.29374,-4.170302 -6.40081,-2.108236 6.73585,0.208113 -3.54816,-5.729367 5.0262,4.489149 z"
       inkscape:randomized="0"
       inkscape:rounded="0"
       inkscape:flatsided="false"
       sodipodi:arg2="-1.2217304"
       sodipodi:arg1="-1.5707963"
       sodipodi:r2="2.8206468"
       sodipodi:r1="9.3202038"
       sodipodi:cy="58.166988"
       sodipodi:cx="-214.91708"
       sodipodi:sides="9"
       id="path4487"
       style="color:#000000;overflow:visible;opacity:1;vector-effect:none;fill:#000000;fill-opacity:1;fill-rule:evenodd;stroke:none;stroke-width:1.24800003;stroke-linecap:round;stroke-linejoin:round;stroke-miterlimit:4;stroke-dasharray:none;stroke-dashoffset:0;stroke-opacity:1;paint-order:normal"
       sodipodi:type="star" />
    <g
       id="g4656"
       transform="translate(-364.08105,-296.12007)">
      <g
         id="g4642">
        <circle
           r="15.457919"
           cy="345.625"
           cx="177.625"
           id="circle4638"
           style="color:#000000;overflow:visible;opacity:1;vector-effect:none;fill:#669900;fill-opacity:1;fill-rule:evenodd;stroke:none;stroke-width:1.24800003;stroke-linecap:round;stroke-linejoin:round;stroke-miterlimit:4;stroke-dasharray:none;stroke-dashoffset:0;stroke-opacity:1;paint-order:normal" />
        <circle
           style="color:#000000;overflow:visible;opacity:1;vector-effect:none;fill:#99cc33;fill-opacity:1;fill-rule:evenodd;stroke:none;stroke-width:1.24800003;stroke-linecap:round;stroke-linejoin:round;stroke-miterlimit:4;stroke-dasharray:none;stroke-dashoffset:0;stroke-opacity:1;paint-order:normal"
           id="circle4640"
           cx="177.625"
           cy="345.625"
           r="12.789041" />
      </g>
      <g
         id="g4654">
        <circle
           r="2.3791516"
           cy="344.00656"
           cx="168.4464"
           id="circle4644"
           style="color:#000000;overflow:visible;opacity:1;vector-effect:none;fill:#3366cc;fill-opacity:1;fill-rule:evenodd;stroke:none;stroke-width:1.24800003;stroke-linecap:round;stroke-linejoin:round;stroke-miterlimit:4;stroke-dasharray:none;stroke-dashoffset:0;stroke-opacity:1;paint-order:normal" />
        <circle
           r="2.3791516"
           cy="338.48532"
           cx="171.63409"
           id="circle4646"
           style="color:#000000;overflow:visible;opacity:1;vector-effect:none;fill:#3366cc;fill-opacity:1;fill-rule:evenodd;stroke:none;stroke-width:1.24800003;stroke-linecap:round;stroke-linejoin:round;stroke-miterlimit:4;stroke-dasharray:none;stroke-dashoffset:0;stroke-opacity:1;paint-order:normal" />
        <circle
           r="2.3791516"
           cy="336.30481"
           cx="177.625"
           id="circle4648"
           style="color:#000000;overflow:visible;opacity:1;vector-effect:none;fill:#3366cc;fill-opacity:1;fill-rule:evenodd;stroke:none;stroke-width:1.24800003;stroke-linecap:round;stroke-linejoin:round;stroke-miterlimit:4;stroke-dasharray:none;stroke-dashoffset:0;stroke-opacity:1;paint-order:normal" />
        <circle
           r="2.3791516"
           cy="338.48532"
           cx="183.61591"
           id="circle4650"
           style="color:#000000;overflow:visible;opacity:1;vector-effect:none;fill:#3366cc;fill-opacity:1;fill-rule:evenodd;stroke:none;stroke-width:1.24800003;stroke-linecap:round;stroke-linejoin:round;stroke-miterlimit:4;stroke-dasharray:none;stroke-dashoffset:0;stroke-opacity:1;paint-order:normal" />
        <circle
           style="color:#000000;overflow:visible;opacity:1;vector-effect:none;fill:#3366cc;fill-opacity:1;fill-rule:evenodd;stroke:none;stroke-width:1.24800003;stroke-linecap:round;stroke-linejoin:round;stroke-miterlimit:4;stroke-dasharray:none;stroke-dashoffset:0;stroke-opacity:1;paint-order:normal"
           id="circle4652"
           cx="186.8036"
           cy="344.00656"
           r="2.3791516" />
      </g>
    </g>
    <g
       style="fill:#bfbfbf;stroke-width:0.15457964"
       transform="matrix(6.469176,0,0,6.469138,141.83272,-1665.5623)"
       id="g4708">
      <path
         inkscape:connector-curvature="0"
         id="circle4505"
         d="M 32.33291,220.20898 A 15.457919,15.457919 0 0 0 16.87588,235.66601 15.457919,15.457919 0 0 0 32.33291,251.125 15.457919,15.457919 0 0 0 47.78994,235.66601 15.457919,15.457919 0 0 0 32.33291,220.20898 Z m 0,2.66797 a 12.789041,12.789041 0 0 1 12.78906,12.78906 12.789041,12.789041 0 0 1 -12.78906,12.78907 12.789041,12.789041 0 0 1 -12.78906,-12.78907 12.789041,12.789041 0 0 1 12.78906,-12.78906 z m 0,1.08985 a 2.3791516,2.3791516 0 0 0 -2.37891,2.3789 2.3791516,2.3791516 0 0 0 2.37891,2.37891 2.3791516,2.3791516 0 0 0 2.37891,-2.37891 2.3791516,2.3791516 0 0 0 -2.37891,-2.3789 z m -5.99023,2.18164 a 2.3791516,2.3791516 0 0 0 -2.37891,2.3789 2.3791516,2.3791516 0 0 0 2.37891,2.37891 2.3791516,2.3791516 0 0 0 2.3789,-2.37891 2.3791516,2.3791516 0 0 0 -2.3789,-2.3789 z m 11.98046,0 a 2.3791516,2.3791516 0 0 0 -2.3789,2.3789 2.3791516,2.3791516 0 0 0 2.3789,2.37891 2.3791516,2.3791516 0 0 0 2.37891,-2.37891 2.3791516,2.3791516 0 0 0 -2.37891,-2.3789 z m -15.16796,5.51953 a 2.3791516,2.3791516 0 0 0 -2.38086,2.38086 2.3791516,2.3791516 0 0 0 2.38086,2.3789 2.3791516,2.3791516 0 0 0 2.3789,-2.3789 2.3791516,2.3791516 0 0 0 -2.3789,-2.38086 z m 18.35546,0 a 2.3791516,2.3791516 0 0 0 -2.3789,2.38086 2.3791516,2.3791516 0 0 0 2.3789,2.3789 2.3791516,2.3791516 0 0 0 2.38086,-2.3789 2.3791516,2.3791516 0 0 0 -2.38086,-2.38086 z"
         style="color:#000000;overflow:visible;opacity:1;vector-effect:none;fill:#bfbfbf;fill-opacity:1;fill-rule:evenodd;stroke:none;stroke-width:0.19291541;stroke-linecap:round;stroke-linejoin:round;stroke-miterlimit:4;stroke-dasharray:none;stroke-dashoffset:0;stroke-opacity:1;paint-order:normal" />
    </g>
    <g
       transform="matrix(0.34246573,0,0,0.34246573,10.068501,-166.87671)"
       id="g4525">
      <g
         id="g4567">
        <path
           sodipodi:nodetypes="cc"
           inkscape:connector-curvature="0"
           id="path9101"
           d="M 156,169 V 22.999997"
           style="color:#000000;overflow:visible;opacity:1;vector-effect:none;fill:none;fill-opacity:1;fill-rule:evenodd;stroke:#000000;stroke-width:36;stroke-linecap:butt;stroke-linejoin:round;stroke-miterlimit:4;stroke-dasharray:none;stroke-dashoffset:0;stroke-opacity:1;paint-order:normal" />
        <path
           sodipodi:nodetypes="ccc"
           inkscape:connector-curvature="0"
           id="path9097"
           d="M 156,40.999997 H 266 V 169"
           style="color:#000000;overflow:visible;opacity:1;vector-effect:none;fill:none;fill-opacity:1;fill-rule:evenodd;stroke:#000000;stroke-width:36;stroke-linecap:butt;stroke-linejoin:round;stroke-miterlimit:4;stroke-dasharray:none;stroke-dashoffset:0;stroke-opacity:1;paint-order:normal" />
        <path
           style="color:#000000;overflow:visible;opacity:1;vector-effect:none;fill:none;fill-opacity:1;fill-rule:evenodd;stroke:#000000;stroke-width:36;stroke-linecap:butt;stroke-linejoin:round;stroke-miterlimit:4;stroke-dasharray:none;stroke-dashoffset:0;stroke-opacity:1;paint-order:normal"
           d="M 211,169 V 22.999997"
           id="path9103"
           inkscape:connector-curvature="0"
           sodipodi:nodetypes="cc" />
      </g>
      <path
         style="color:#000000;overflow:visible;opacity:1;vector-effect:none;fill:none;fill-opacity:1;fill-rule:evenodd;stroke:#000000;stroke-width:36;stroke-linecap:butt;stroke-linejoin:round;stroke-miterlimit:4;stroke-dasharray:none;stroke-dashoffset:0;stroke-opacity:1;paint-order:normal"
         d="M 321,169 V 22.999997"
         id="path9105"
         inkscape:connector-curvature="0"
         sodipodi:nodetypes="cc" />
      <path
         sodipodi:nodetypes="cc"
         inkscape:connector-curvature="0"
         id="path9109"
         d="M 375,169 V 74.999997"
         style="color:#000000;overflow:visible;opacity:1;vector-effect:none;fill:none;fill-opacity:1;fill-rule:evenodd;stroke:#000000;stroke-width:36;stroke-linecap:butt;stroke-linejoin:round;stroke-miterlimit:4;stroke-dasharray:none;stroke-dashoffset:0;stroke-opacity:1;paint-order:normal" />
      <path
         style="color:#000000;overflow:visible;opacity:1;vector-effect:none;fill:none;fill-opacity:1;fill-rule:evenodd;stroke:#000000;stroke-width:36;stroke-linecap:butt;stroke-linejoin:round;stroke-miterlimit:4;stroke-dasharray:none;stroke-dashoffset:0;stroke-opacity:1;paint-order:normal"
         d="M 357,151 H 462 V 40.999997 H 357"
         id="path9111"
         inkscape:connector-curvature="0"
         sodipodi:nodetypes="cccc" />
      <path
         sodipodi:nodetypes="cc"
         inkscape:connector-curvature="0"
         id="path9113"
         d="M 516,169 V 22.999997"
         style="color:#000000;overflow:visible;opacity:1;vector-effect:none;fill:none;fill-opacity:1;fill-rule:evenodd;stroke:#000000;stroke-width:36;stroke-linecap:butt;stroke-linejoin:round;stroke-miterlimit:4;stroke-dasharray:none;stroke-dashoffset:0;stroke-opacity:1;paint-order:normal" />
    </g>
    <g
       style="fill:#000000;stroke:#99cc33;stroke-width:21.36600113;stroke-linecap:round;stroke-linejoin:miter;stroke-miterlimit:4;stroke-dasharray:none;paint-order:stroke fill markers"
       id="g5995"
       transform="matrix(0.28081997,0,0,0.28081997,33.66501,-351.30203)">
      <g
         style="fill:#000000;stroke:#99cc33;stroke-width:21.36600113;stroke-linecap:round;stroke-linejoin:miter;stroke-miterlimit:4;stroke-dasharray:none;paint-order:stroke fill markers"
         id="g5985" />
      <path
         inkscape:connector-curvature="0"
         d="m 497.60095,1012.4006 v 146 h 36 v -146 z m -141.00189,0 v 35.9982 h 87.0012 v 74.0037 H 392.6029 v -58.0008 h -36.00384 v 58.0008 35.9981 h 36.00384 68.99642 a 18.0018,18.0018 0 0 0 17.99906,-17.999 v -110.0019 a 18.0018,18.0018 0 0 0 -17.99906,-17.9991 z m -53.9981,0 v 146 h 35.99998 v -146 z m -165.0019,0 v 146 h 36.00383 V 1048.3978 H 192.6 v 110.0018 h 35.99813 v -110.0018 h 19.00281 v 110.0018 h 35.99812 V 1030.3987 A 18.0018,18.0018 0 0 0 265.6,1012.3996 H 228.59813 192.6 173.60289 155.59813 Z"
         style="color:#000000;font-style:normal;font-variant:normal;font-weight:normal;font-stretch:normal;font-size:medium;line-height:normal;font-family:sans-serif;font-variant-ligatures:normal;font-variant-position:normal;font-variant-caps:normal;font-variant-numeric:normal;font-variant-alternates:normal;font-feature-settings:normal;text-indent:0;text-align:start;text-decoration:none;text-decoration-line:none;text-decoration-style:solid;text-decoration-color:#000000;letter-spacing:normal;word-spacing:normal;text-transform:none;writing-mode:lr-tb;direction:ltr;text-orientation:mixed;dominant-baseline:auto;baseline-shift:baseline;text-anchor:start;white-space:normal;shape-padding:0;clip-rule:nonzero;display:inline;overflow:visible;visibility:visible;opacity:1;isolation:auto;mix-blend-mode:normal;color-interpolation:sRGB;color-interpolation-filters:linearRGB;solid-color:#000000;solid-opacity:1;vector-effect:none;fill:#000000;fill-opacity:1;fill-rule:evenodd;stroke:#99cc33;stroke-width:21.36600113;stroke-linecap:round;stroke-linejoin:miter;stroke-miterlimit:4;stroke-dasharray:none;stroke-dashoffset:0;stroke-opacity:1;paint-order:stroke fill markers;color-rendering:auto;image-rendering:auto;shape-rendering:auto;text-rendering:auto;enable-background:accumulate"
         id="path5993" />
    </g>
  </g>
</svg>
